<svg width="41" height="40" viewBox="0 0 41 40" fill="none" xmlns="http://www.w3.org/2000/svg">
<path d="M33.8334 20C33.4327 20.0029 33.0358 20.078 32.6617 20.2217L28.665 16.95C28.7634 16.5933 28.8334 16.2233 28.8334 15.8333C28.8334 13.5233 26.9767 11.6667 24.6667 11.6667C22.3567 11.6667 20.5 13.5233 20.5 15.8333C20.5 16.4933 20.6667 17.1083 20.9367 17.6617L16.0884 23.3917C15.8943 23.3553 15.6975 23.3358 15.5 23.3333C15.2017 23.3333 14.92 23.3833 14.6467 23.4567L10.375 19.185C10.45 18.9133 10.5 18.6317 10.5 18.3333C10.5 16.4867 9.01337 15 7.16671 15C5.32004 15 3.83337 16.4867 3.83337 18.3333C3.83337 20.18 5.32004 21.6667 7.16671 21.6667C7.46504 21.6667 7.74671 21.6167 8.02004 21.5433L12.2917 25.815C12.2116 26.0919 12.1695 26.3784 12.1667 26.6667C12.1667 28.5133 13.6534 30 15.5 30C17.3467 30 18.8334 28.5133 18.8334 26.6667C18.8334 26.2717 18.7534 25.9 18.6284 25.5483L23.4834 19.8117C23.8617 19.9217 24.2534 20 24.6667 20C25.3245 19.9964 25.9718 19.8358 26.555 19.5317L30.5534 22.8033C30.522 22.9784 30.5042 23.1556 30.5 23.3333C30.5 25.18 31.9867 26.6667 33.8334 26.6667C35.68 26.6667 37.1667 25.18 37.1667 23.3333C37.1667 21.4867 35.68 20 33.8334 20Z" fill="black"/>
</svg>
