<svg width="41" height="40" viewBox="0 0 41 40" fill="none" xmlns="http://www.w3.org/2000/svg">
<path d="M7.16667 21.6667H17.1667C17.6087 21.6667 18.0326 21.4911 18.3452 21.1785C18.6577 20.8659 18.8333 20.442 18.8333 20V6.66667C18.8333 6.22464 18.6577 5.80072 18.3452 5.48816C18.0326 5.17559 17.6087 5 17.1667 5H7.16667C6.72464 5 6.30072 5.17559 5.98816 5.48816C5.67559 5.80072 5.5 6.22464 5.5 6.66667V20C5.5 20.442 5.67559 20.8659 5.98816 21.1785C6.30072 21.4911 6.72464 21.6667 7.16667 21.6667ZM5.5 33.3333C5.5 33.7754 5.67559 34.1993 5.98816 34.5118C6.30072 34.8244 6.72464 35 7.16667 35H17.1667C17.6087 35 18.0326 34.8244 18.3452 34.5118C18.6577 34.1993 18.8333 33.7754 18.8333 33.3333V26.6667C18.8333 26.2246 18.6577 25.8007 18.3452 25.4882C18.0326 25.1756 17.6087 25 17.1667 25H7.16667C6.72464 25 6.30072 25.1756 5.98816 25.4882C5.67559 25.8007 5.5 26.2246 5.5 26.6667V33.3333ZM22.1667 33.3333C22.1667 33.7754 22.3423 34.1993 22.6548 34.5118C22.9674 34.8244 23.3913 35 23.8333 35H33.8333C34.2754 35 34.6993 34.8244 35.0118 34.5118C35.3244 34.1993 35.5 33.7754 35.5 33.3333V21.6667C35.5 21.2246 35.3244 20.8007 35.0118 20.4882C34.6993 20.1756 34.2754 20 33.8333 20H23.8333C23.3913 20 22.9674 20.1756 22.6548 20.4882C22.3423 20.8007 22.1667 21.2246 22.1667 21.6667V33.3333ZM23.8333 16.6667H33.8333C34.2754 16.6667 34.6993 16.4911 35.0118 16.1785C35.3244 15.866 35.5 15.442 35.5 15V6.66667C35.5 6.22464 35.3244 5.80072 35.0118 5.48816C34.6993 5.17559 34.2754 5 33.8333 5H23.8333C23.3913 5 22.9674 5.17559 22.6548 5.48816C22.3423 5.80072 22.1667 6.22464 22.1667 6.66667V15C22.1667 15.442 22.3423 15.866 22.6548 16.1785C22.9674 16.4911 23.3913 16.6667 23.8333 16.6667Z" fill="black"/>
</svg>
