<svg width="41" height="40" viewBox="0 0 41 40" fill="none" xmlns="http://www.w3.org/2000/svg">
<path d="M20.81 24.2533C19.7816 24.2533 19.1816 25.2317 19.1816 26.5417C19.1816 27.86 19.8 28.7917 20.82 28.7917C21.8483 28.7917 22.4383 27.8117 22.4383 26.5017C22.4383 25.2917 21.8583 24.2533 20.81 24.2533Z" fill="black"/>
<path d="M23.8333 3.33333H10.5C9.6159 3.33333 8.76806 3.68452 8.14294 4.30964C7.51782 4.93476 7.16663 5.78261 7.16663 6.66667V33.3333C7.16663 34.2174 7.51782 35.0652 8.14294 35.6904C8.76806 36.3155 9.6159 36.6667 10.5 36.6667H30.5C31.384 36.6667 32.2319 36.3155 32.857 35.6904C33.4821 35.0652 33.8333 34.2174 33.8333 33.3333V13.3333L23.8333 3.33333ZM15.7583 29.09C15.0483 29.68 13.97 29.9583 12.6516 29.9583C11.86 29.9583 11.3016 29.9083 10.9216 29.8583V23.24C11.6032 23.1418 12.2913 23.0956 12.98 23.1017C14.26 23.1017 15.09 23.3317 15.7383 23.8217C16.4383 24.3417 16.8783 25.1717 16.8783 26.3583C16.8783 27.65 16.4083 28.54 15.7583 29.09ZM20.7416 30C18.7416 30 17.5733 28.49 17.5733 26.57C17.5733 24.5517 18.8616 23.0433 20.8516 23.0433C22.92 23.0433 24.05 24.5917 24.05 26.4517C24.0483 28.66 22.7083 30 20.7416 30ZM28.5 28.73C28.9583 28.73 29.4683 28.6283 29.77 28.51L30 29.6983C29.72 29.8383 29.09 29.9883 28.2716 29.9883C25.9433 29.9883 24.7433 28.54 24.7433 26.62C24.7433 24.3217 26.3816 23.0433 28.4216 23.0433C29.2116 23.0433 29.81 23.2033 30.08 23.3433L29.77 24.5533C29.3642 24.3856 28.929 24.3006 28.49 24.3033C27.28 24.3033 26.34 25.0333 26.34 26.5333C26.34 27.8817 27.14 28.73 28.5 28.73ZM23.8333 15H22.1666V6.66667L30.5 15H23.8333Z" fill="black"/>
<path d="M13.14 24.2717C12.8017 24.2717 12.5817 24.3017 12.4517 24.3317V28.74C12.5817 28.77 12.7917 28.77 12.98 28.77C14.36 28.78 15.2583 28.0217 15.2583 26.4117C15.2683 25.0117 14.45 24.2717 13.14 24.2717Z" fill="black"/>
</svg>
