<svg width="41" height="40" viewBox="0 0 41 40" fill="none" xmlns="http://www.w3.org/2000/svg">
<path d="M28.8334 3.33333H12.1667C7.57171 3.33333 3.83337 7.07166 3.83337 11.6667V28.3333C3.83337 32.9283 7.57171 36.6667 12.1667 36.6667H28.8334C33.4284 36.6667 37.1667 32.9283 37.1667 28.3333V11.6667C37.1667 7.07166 33.4284 3.33333 28.8334 3.33333ZM33.8334 28.3333C33.8334 31.09 31.59 33.3333 28.8334 33.3333H12.1667C9.41004 33.3333 7.16671 31.09 7.16671 28.3333V11.6667C7.16671 8.91 9.41004 6.66666 12.1667 6.66666H28.8334C31.59 6.66666 33.8334 8.91 33.8334 11.6667V28.3333Z" fill="black"/>
<line x1="13.426" y1="5.85179" x2="31.7593" y2="34.1851" stroke="black" stroke-width="3"/>
<line x1="6.30643" y1="32.1045" x2="22.9731" y2="20.4378" stroke="black" stroke-width="3"/>
</svg>
