<svg width="50" height="59" viewBox="0 0 50 59" fill="none" xmlns="http://www.w3.org/2000/svg">
<path d="M5.3 -1.90735e-06H25.1L24.3 4.6H9.94L8.58 12.36H21.02L20.22 16.96H7.78L5.82 28H0.38L5.3 -1.90735e-06ZM47.8669 13.12L44.8269 15.72L47.0269 18.72L45.3869 28H39.9469L41.3869 19.72L39.6269 17.28H30.7469L28.8669 28H23.4269L28.3469 -1.90735e-06H45.5469L49.3469 4.64L47.8669 13.12ZM31.5469 12.8H41.1469L42.7869 11.4L43.7469 5.96L42.5869 4.56H32.9869L31.5469 12.8ZM0.58 54.36L1.26 50.68H6.62L6.18 53.04L7.26 54.36H15.5L17.1 53L17.94 48.36L16.86 47.04H6.58L2.74 42.4L4.02 35L8.74 31H21.34L25.22 35.64L24.58 39.36H19.22L19.62 36.96L18.54 35.64H10.62L9.06 36.96L8.34 41.08L9.42 42.4H19.7L23.54 47.04L22.1 55L17.42 59H4.42L0.58 54.36ZM35.3131 35.6H26.9531L27.7531 31H49.9131L49.0731 35.6H40.7531L36.6331 59H31.1931L35.3131 35.6Z" fill="#0F0F0F"/>
</svg>
